<svg version="1.1" xmlns="http://www.w3.org/2000/svg" viewBox="-296.9599992752075 -1405.1840240478516 9281.706885387333 2148.8640197753907"><desc>Created with Snap</desc><defs></defs><g><g transform="matrix(17.0686,0,0,17.0686,7056.0332,-1183.3268)"><g><path d="M78.4,66.5c-5.5,4.8-9.9,15.2-9.9,15.2s-6.9-11.4-12.9-15.3c-9.5-6.1-13.6-6.2-13.6-6.2V65c0,0,7.8,1.2,11.7,4.6   c8.2,7.1,14.8,18.5,14.8,18.5S74.4,75,80.1,70.5C88.1,64.3,95,65,95,65v-4.8C95,60.1,85.1,60.7,78.4,66.5z" fill="#225662" style=""></path><path d="M42,80c-6.4-3.6-17.8-4.3-17.8-4.3s8.7-10.1,10.5-17C37.5,47.9,36.2,44,36.2,44l-4.6,1.6c0,0,1.3,7.7-0.6,12.4   c-4.1,9.9-13,19.8-13,19.8s14.6,1.3,20.7,5.1c8.6,5.4,10.2,12,10.2,12l4.6-1.6C53.5,93.4,49.7,84.4,42,80z" fill="#225662" style=""></path><path d="M35.3,36.8c11.3-0.9,14.6-3.4,14.6-3.4l-3-3.8c0,0-6.9,3.7-12.1,3.4c-10.9-0.6-23.3-5.6-23.3-5.6s3.5,14,1.8,20.9   C10.9,58.2,5,61.8,5,61.8l3,3.8c0,0,7.5-6.5,9.1-15.1c1.3-7.1-1.7-18-1.7-18S28,37.4,35.3,36.8z" fill="#225662" style=""></path><path d="M37.4,17.8c7.3-1.1,16.7-7.4,16.7-7.4s-0.6,13.2,2.4,19.8c4.6,10.2,8,12.5,8,12.5l2.7-4c0,0-5.9-5.2-7.3-10.2   C56.9,18.2,57.7,5,57.7,5s-12.3,7.8-19.5,8.5c-10.2,1-15.6-3.3-15.6-3.3l-2.7,4.1C19.9,14.2,28.6,19.1,37.4,17.8z" fill="#225662" style=""></path><path d="M65,60.5c0,0,3.1-7.2,7.4-10.1c9-6.1,21.9-9.7,21.9-9.7s-11.5-8.9-14.5-15.4c-4.2-9.1-1.9-15.6-1.9-15.6l-4.8-1.2   c0,0-1.9,9.6,2.2,17.4c3.4,6.4,12.5,13.2,12.5,13.2S75,42.9,69.6,47.8c-8.3,7.6-9.4,11.5-9.4,11.5L65,60.5z" fill="#225662" style=""></path></g><desc>Created with Snap</desc><defs></defs></g><g><g transform="matrix(1.024,0,0,-1.024,0,0)"><path d="M58 585L34 585Q10 585 10 611Q10 638 34 638L136 638Q158 638 158 611Q158 585 136 585L116 585L285 77L370 314L280 585L258 585Q247 585 240 592Q233 600 233 611Q233 622 240 630Q247 638 258 638L354 638Q366 638 374 630Q382 622 382 611Q382 600 374 592Q367 585 354 585L337 585L508 71L659 504Q672 541 672 562Q672 584 657 588Q639 567 615 567Q591 567 578 577Q566 588 566 608Q566 628 585 642Q604 656 638 656Q672 656 696 629Q720 602 720 569Q720 537 703 490L534 14Q526 -10 504 -10Q494 -10 483 -4Q473 2 470 12L393 243L310 14Q301 -10 279 -10Q258 -10 250 13L58 585ZM1056 332Q1052 372 1020 409Q988 446 940 446Q893 446 862 411Q831 376 819 332L1056 332ZM951 -10Q860 -10 805 61Q750 132 750 242Q750 352 802 421Q855 490 941 490Q985 490 1020 470Q1055 451 1074 422Q1114 363 1114 310Q1114 282 1088 282L808 282Q806 269 806 245Q806 153 847 94Q889 35 951 35Q978 35 1000 49Q1022 64 1031 77Q1040 91 1051 114Q1063 137 1083 137Q1113 137 1113 110Q1113 75 1068 32Q1024 -10 951 -10ZM1228 585L1228 405Q1276 482 1362 482Q1449 482 1497 413Q1546 344 1546 236Q1546 129 1496 61Q1446 -7 1358 -7Q1271 -7 1221 58Q1172 123 1172 242L1172 585L1146 585Q1124 585 1124 611Q1124 637 1146 637L1254 637Q1265 637 1271 629Q1277 622 1277 611Q1277 601 1271 593Q1265 585 1254 585L1228 585ZM1224 230Q1224 137 1263 87Q1302 38 1354 38Q1407 38 1438 71Q1491 127 1491 236Q1491 308 1464 368Q1450 399 1423 418Q1396 437 1360 437Q1297 437 1260 380Q1224 324 1224 230ZM2014 65Q2014 78 2022 86Q2030 94 2043 94Q2056 94 2064 86Q2072 79 2072 66Q2072 37 2046 13Q2021 -10 1983 -10Q1945 -10 1920 16Q1895 43 1895 82L1895 428L1852 428Q1841 428 1833 436Q1826 444 1826 454Q1826 464 1833 472Q1841 480 1852 480L1876 480Q1892 480 1896 484Q1900 489 1900 503L1900 557Q1900 596 1940 596Q1952 596 1952 584L1952 480L1996 480Q2023 480 2023 453Q2023 443 2016 435Q2009 428 1996 428L1952 428L1952 83Q1952 36 1983 36Q2014 36 2014 65ZM2403 332Q2399 372 2367 409Q2335 446 2287 446Q2240 446 2209 411Q2178 376 2166 332L2403 332ZM2298 -10Q2207 -10 2152 61Q2097 132 2097 242Q2097 352 2149 421Q2202 490 2288 490Q2332 490 2367 470Q2402 451 2421 422Q2461 363 2461 310Q2461 282 2435 282L2155 282Q2153 269 2153 245Q2153 153 2194 94Q2236 35 2298 35Q2325 35 2347 49Q2369 64 2378 77Q2387 91 2398 114Q2410 137 2430 137Q2460 137 2460 110Q2460 75 2415 32Q2371 -10 2298 -10ZM2807 137Q2825 137 2833 128Q2841 120 2841 110Q2841 75 2796 32Q2752 -10 2681 -10Q2591 -10 2536 61Q2481 133 2481 241Q2481 349 2534 419Q2587 490 2669 490Q2714 490 2748 468Q2782 447 2782 412Q2782 394 2772 382Q2763 370 2745 370Q2727 370 2713 390Q2699 411 2698 438Q2682 445 2670 445Q2615 445 2576 388Q2537 332 2537 242Q2537 153 2578 94Q2620 36 2681 36Q2742 36 2778 113Q2789 137 2807 137ZM2927 52L2927 586L2888 586Q2866 586 2866 612Q2866 638 2888 638L2961 638Q2974 638 2978 633Q2983 629 2983 616L2983 392Q3001 428 3041 457Q3081 486 3138 486Q3196 486 3227 441Q3258 397 3258 338L3258 52L3287 52Q3298 52 3304 44Q3310 36 3310 26Q3310 16 3304 8Q3298 0 3287 0L3177 0Q3151 0 3151 26Q3151 52 3177 52L3202 52L3202 341Q3202 377 3185 408Q3168 439 3127 439Q3072 439 3027 382Q2983 325 2983 262L2983 52L3012 52Q3023 52 3030 44Q3037 36 3037 26Q3037 16 3030 8Q3023 0 3012 0L2896 0Q2872 0 2872 26Q2872 52 2896 52L2927 52ZM3768 492Q3854 492 3901 436Q3949 380 3949 293Q3949 155 3959 106Q3969 58 3997 38Q4014 30 4014 16Q4014 -10 3990 -10Q3966 -10 3944 12Q3923 35 3910 68Q3893 35 3855 12Q3818 -10 3766 -10Q3690 -10 3642 37Q3595 85 3595 158Q3595 232 3645 284Q3695 336 3769 336Q3844 336 3894 287Q3894 357 3864 404Q3834 452 3772 452Q3710 452 3694 418Q3703 397 3703 383Q3703 369 3691 353Q3679 337 3661 337Q3644 337 3634 352Q3624 367 3624 387Q3624 429 3665 460Q3707 492 3768 492ZM3650 163Q3650 108 3687 71Q3724 34 3775 34Q3827 34 3862 69Q3897 105 3897 156L3897 165Q3897 219 3861 254Q3825 289 3772 289Q3720 289 3685 253Q3650 218 3650 163ZM4371 224L4371 428L4348 428Q4337 428 4329 436Q4322 444 4322 454Q4322 464 4329 472Q4337 480 4348 480L4449 480Q4473 480 4473 454Q4473 428 4449 428L4427 428L4427 52L4464 52Q4487 52 4487 26Q4487 14 4480 7Q4473 0 4464 0L4393 0Q4381 0 4376 4Q4372 9 4372 21L4372 86Q4315 -7 4222 -7Q4149 -7 4114 42Q4079 92 4079 157L4079 428L4057 428Q4046 428 4040 436Q4034 444 4034 454Q4034 464 4040 472Q4046 480 4057 480L4159 480Q4170 480 4177 472Q4184 464 4184 454Q4184 444 4177 436Q4170 428 4159 428L4135 428L4135 156Q4135 112 4158 76Q4181 40 4232 40Q4284 40 4327 92Q4371 144 4371 224ZM4858 137Q4876 137 4884 128Q4892 120 4892 110Q4892 75 4847 32Q4803 -10 4732 -10Q4642 -10 4587 61Q4532 133 4532 241Q4532 349 4585 419Q4638 490 4720 490Q4765 490 4799 468Q4833 447 4833 412Q4833 394 4823 382Q4814 370 4796 370Q4778 370 4764 390Q4750 411 4749 438Q4733 445 4721 445Q4666 445 4627 388Q4588 332 4588 242Q4588 153 4629 94Q4671 36 4732 36Q4793 36 4829 113Q4840 137 4858 137ZM5090 65Q5090 78 5098 86Q5106 94 5119 94Q5132 94 5140 86Q5148 79 5148 66Q5148 37 5122 13Q5097 -10 5059 -10Q5021 -10 4996 16Q4971 43 4971 82L4971 428L4928 428Q4917 428 4909 436Q4902 444 4902 454Q4902 464 4909 472Q4917 480 4928 480L4952 480Q4968 480 4972 484Q4976 489 4976 503L4976 557Q4976 596 5016 596Q5028 596 5028 584L5028 480L5072 480Q5099 480 5099 453Q5099 443 5092 435Q5085 428 5072 428L5028 428L5028 83Q5028 36 5059 36Q5090 36 5090 65ZM5233 53L5233 429L5207 429Q5195 429 5188 436Q5181 444 5181 454Q5181 480 5207 480L5257 480Q5288 480 5289 453L5289 52L5314 52Q5326 52 5332 44Q5339 36 5339 26Q5339 0 5314 0L5208 0Q5198 0 5190 7Q5183 15 5183 25Q5183 35 5190 43Q5198 52 5208 52L5233 53ZM5248 635Q5268 635 5281 622Q5295 609 5295 590Q5295 572 5281 559Q5268 546 5248 546Q5229 546 5215 559Q5202 572 5202 590Q5202 609 5215 622Q5228 635 5248 635ZM5382 241Q5382 349 5443 418Q5505 488 5609 488Q5714 488 5775 419Q5837 350 5837 242Q5837 135 5776 64Q5715 -6 5608 -6Q5502 -6 5442 64Q5382 134 5382 241ZM5487 99Q5536 41 5609 41Q5682 41 5731 98Q5781 156 5781 241Q5781 326 5731 383Q5681 441 5609 441Q5537 441 5487 384Q5438 327 5438 242Q5438 157 5487 99ZM5997 255L5997 52L6026 52Q6037 52 6044 44Q6051 36 6051 26Q6051 16 6044 8Q6037 0 6026 0L5909 0Q5898 0 5891 7Q5885 15 5885 25Q5885 36 5891 44Q5898 52 5909 52L5941 52L5941 428L5900 428Q5889 428 5883 435Q5877 443 5877 455Q5877 467 5884 473Q5892 480 5900 480L5977 480Q5988 480 5992 476Q5996 472 5996 461L5996 386Q6023 431 6065 459Q6107 487 6153 487Q6229 487 6261 441Q6293 396 6293 329L6293 52L6321 52Q6332 52 6339 44Q6346 36 6346 26Q6346 16 6339 8Q6332 0 6321 0L6213 0Q6189 0 6189 26Q6189 52 6213 52L6237 52L6237 334Q6237 440 6152 440Q6095 440 6046 387Q5997 334 5997 255ZM6471 401Q6471 365 6543 312L6576 287Q6604 267 6620 252Q6637 238 6655 205Q6674 173 6674 137Q6674 81 6637 35Q6601 -10 6535 -10Q6469 -10 6427 21Q6386 53 6386 102Q6386 132 6402 153Q6418 175 6436 175Q6454 175 6463 163Q6473 152 6473 134Q6473 98 6449 80Q6451 60 6474 46Q6498 32 6536 32Q6575 32 6599 60Q6623 88 6623 119Q6623 151 6608 174Q6593 197 6578 209Q6563 221 6530 245L6512 258Q6464 292 6440 320Q6416 349 6416 390Q6416 432 6446 460Q6476 488 6520 488Q6564 488 6599 463Q6634 438 6634 401Q6634 384 6625 372Q6617 361 6601 361Q6585 361 6569 379Q6554 398 6554 414Q6554 431 6559 443Q6550 450 6523 450Q6497 450 6484 434Q6471 419 6471 401Z" fill="#225662" style=""></path></g></g></g></svg>